<mxfile host="app.diagrams.net" agent="Mozilla/5.0 (X11; Linux x86_64) AppleWebKit/537.36 (KHTML, like Gecko) Chrome/133.0.0.0 Safari/537.36" version="26.1.1">
  <diagram id="C5RBs43oDa-KdzZeNtuy" name="Page-1">
    <mxGraphModel dx="973" dy="851" grid="0" gridSize="10" guides="0" tooltips="1" connect="1" arrows="1" fold="1" page="1" pageScale="1" pageWidth="827" pageHeight="1169" math="0" shadow="0">
      <root>
        <mxCell id="WIyWlLk6GJQsqaUBKTNV-0" />
        <mxCell id="WIyWlLk6GJQsqaUBKTNV-1" parent="WIyWlLk6GJQsqaUBKTNV-0" />
        <mxCell id="pwaAFjr-Ts_MPylbhO1c-14" value="" style="group" vertex="1" connectable="0" parent="WIyWlLk6GJQsqaUBKTNV-1">
          <mxGeometry x="904" y="77" width="640" height="580" as="geometry" />
        </mxCell>
        <mxCell id="pwaAFjr-Ts_MPylbhO1c-12" value="" style="shape=folder;fontStyle=1;spacingTop=10;tabWidth=120;tabHeight=30;tabPosition=left;html=1;whiteSpace=wrap;" vertex="1" parent="pwaAFjr-Ts_MPylbhO1c-14">
          <mxGeometry width="640" height="580" as="geometry" />
        </mxCell>
        <mxCell id="pwaAFjr-Ts_MPylbhO1c-10" value="" style="shape=folder;fontStyle=1;spacingTop=10;tabWidth=160;tabHeight=30;tabPosition=left;html=1;whiteSpace=wrap;" vertex="1" parent="pwaAFjr-Ts_MPylbhO1c-14">
          <mxGeometry x="400" y="360" width="190" height="190" as="geometry" />
        </mxCell>
        <mxCell id="pwaAFjr-Ts_MPylbhO1c-2" value="" style="shape=folder;fontStyle=1;spacingTop=10;tabWidth=160;tabHeight=30;tabPosition=left;html=1;whiteSpace=wrap;" vertex="1" parent="pwaAFjr-Ts_MPylbhO1c-14">
          <mxGeometry x="70" y="70" width="240" height="480" as="geometry" />
        </mxCell>
        <mxCell id="JWpU6tJr-7o1I1a7hI5X-4" value="" style="group" parent="pwaAFjr-Ts_MPylbhO1c-14" vertex="1" connectable="0">
          <mxGeometry x="106" y="120" width="146" height="90" as="geometry" />
        </mxCell>
        <mxCell id="JWpU6tJr-7o1I1a7hI5X-1" value="package" style="shape=folder;fontStyle=1;spacingTop=10;tabWidth=88;tabHeight=20;tabPosition=left;html=1;whiteSpace=wrap;rotation=0;" parent="JWpU6tJr-7o1I1a7hI5X-4" vertex="1">
          <mxGeometry x="6" width="140" height="90" as="geometry" />
        </mxCell>
        <mxCell id="JWpU6tJr-7o1I1a7hI5X-2" value="User Interface" style="text;html=1;align=center;verticalAlign=middle;whiteSpace=wrap;rounded=0;" parent="JWpU6tJr-7o1I1a7hI5X-4" vertex="1">
          <mxGeometry x="8" width="80" height="20" as="geometry" />
        </mxCell>
        <mxCell id="JWpU6tJr-7o1I1a7hI5X-3" value="" style="rounded=0;whiteSpace=wrap;html=1;fillColor=#FFFFFF;strokeColor=none;" parent="JWpU6tJr-7o1I1a7hI5X-4" vertex="1">
          <mxGeometry x="26" y="40" width="100" height="40" as="geometry" />
        </mxCell>
        <mxCell id="JWpU6tJr-7o1I1a7hI5X-5" value="" style="group" parent="pwaAFjr-Ts_MPylbhO1c-14" vertex="1" connectable="0">
          <mxGeometry x="106" y="270" width="150" height="90" as="geometry" />
        </mxCell>
        <mxCell id="JWpU6tJr-7o1I1a7hI5X-6" value="package" style="shape=folder;fontStyle=1;spacingTop=10;tabWidth=114;tabHeight=20;tabPosition=left;html=1;whiteSpace=wrap;rotation=0;" parent="JWpU6tJr-7o1I1a7hI5X-5" vertex="1">
          <mxGeometry x="6.164383561643836" width="143.83561643835617" height="90" as="geometry" />
        </mxCell>
        <mxCell id="JWpU6tJr-7o1I1a7hI5X-7" value="Business Logic" style="text;html=1;align=center;verticalAlign=middle;whiteSpace=wrap;rounded=0;" parent="JWpU6tJr-7o1I1a7hI5X-5" vertex="1">
          <mxGeometry width="123.28767123287673" height="20" as="geometry" />
        </mxCell>
        <mxCell id="JWpU6tJr-7o1I1a7hI5X-8" value="" style="rounded=0;whiteSpace=wrap;html=1;fillColor=#FFFFFF;strokeColor=none;" parent="JWpU6tJr-7o1I1a7hI5X-5" vertex="1">
          <mxGeometry x="26.71232876712329" y="40" width="102.73972602739727" height="40" as="geometry" />
        </mxCell>
        <mxCell id="JWpU6tJr-7o1I1a7hI5X-9" value="" style="group" parent="pwaAFjr-Ts_MPylbhO1c-14" vertex="1" connectable="0">
          <mxGeometry x="106" y="420" width="146" height="90" as="geometry" />
        </mxCell>
        <mxCell id="JWpU6tJr-7o1I1a7hI5X-10" value="package" style="shape=folder;fontStyle=1;spacingTop=10;tabWidth=114;tabHeight=20;tabPosition=left;html=1;whiteSpace=wrap;rotation=0;" parent="JWpU6tJr-7o1I1a7hI5X-9" vertex="1">
          <mxGeometry x="6" width="140" height="90" as="geometry" />
        </mxCell>
        <mxCell id="JWpU6tJr-7o1I1a7hI5X-11" value="Data Access" style="text;html=1;align=center;verticalAlign=middle;whiteSpace=wrap;rounded=0;" parent="JWpU6tJr-7o1I1a7hI5X-9" vertex="1">
          <mxGeometry width="120" height="20" as="geometry" />
        </mxCell>
        <mxCell id="JWpU6tJr-7o1I1a7hI5X-12" value="" style="rounded=0;whiteSpace=wrap;html=1;fillColor=#FFFFFF;strokeColor=none;" parent="JWpU6tJr-7o1I1a7hI5X-9" vertex="1">
          <mxGeometry x="26" y="40" width="100" height="40" as="geometry" />
        </mxCell>
        <mxCell id="pwaAFjr-Ts_MPylbhO1c-0" value="" style="endArrow=open;endSize=12;dashed=1;html=1;rounded=0;exitX=0.39;exitY=1.011;exitDx=0;exitDy=0;exitPerimeter=0;entryX=0.5;entryY=0;entryDx=0;entryDy=0;" edge="1" parent="pwaAFjr-Ts_MPylbhO1c-14" source="JWpU6tJr-7o1I1a7hI5X-1" target="JWpU6tJr-7o1I1a7hI5X-7">
          <mxGeometry width="160" relative="1" as="geometry">
            <mxPoint x="110" y="320" as="sourcePoint" />
            <mxPoint x="270" y="320" as="targetPoint" />
          </mxGeometry>
        </mxCell>
        <mxCell id="pwaAFjr-Ts_MPylbhO1c-1" value="" style="endArrow=open;endSize=12;dashed=1;html=1;rounded=0;entryX=0.5;entryY=0;entryDx=0;entryDy=0;exitX=0.374;exitY=1;exitDx=0;exitDy=0;exitPerimeter=0;" edge="1" parent="pwaAFjr-Ts_MPylbhO1c-14" source="JWpU6tJr-7o1I1a7hI5X-6" target="JWpU6tJr-7o1I1a7hI5X-11">
          <mxGeometry width="160" relative="1" as="geometry">
            <mxPoint x="110" y="320" as="sourcePoint" />
            <mxPoint x="270" y="320" as="targetPoint" />
            <mxPoint as="offset" />
          </mxGeometry>
        </mxCell>
        <mxCell id="pwaAFjr-Ts_MPylbhO1c-4" value="&lt;font style=&quot;font-size: 14px;&quot;&gt;App&lt;/font&gt;" style="text;html=1;align=center;verticalAlign=middle;whiteSpace=wrap;rounded=0;" vertex="1" parent="pwaAFjr-Ts_MPylbhO1c-14">
          <mxGeometry x="70" y="70" width="60" height="30" as="geometry" />
        </mxCell>
        <mxCell id="pwaAFjr-Ts_MPylbhO1c-5" value="" style="group" vertex="1" connectable="0" parent="pwaAFjr-Ts_MPylbhO1c-14">
          <mxGeometry x="420" y="420" width="146" height="100" as="geometry" />
        </mxCell>
        <mxCell id="pwaAFjr-Ts_MPylbhO1c-6" value="package" style="shape=folder;fontStyle=1;spacingTop=10;tabWidth=70;tabHeight=20;tabPosition=left;html=1;whiteSpace=wrap;rotation=0;" vertex="1" parent="pwaAFjr-Ts_MPylbhO1c-5">
          <mxGeometry x="6" width="140" height="90" as="geometry" />
        </mxCell>
        <mxCell id="pwaAFjr-Ts_MPylbhO1c-7" value="DataBase" style="text;html=1;align=center;verticalAlign=middle;whiteSpace=wrap;rounded=0;" vertex="1" parent="pwaAFjr-Ts_MPylbhO1c-5">
          <mxGeometry width="80" height="22.22222222222222" as="geometry" />
        </mxCell>
        <mxCell id="pwaAFjr-Ts_MPylbhO1c-8" value="" style="rounded=0;whiteSpace=wrap;html=1;fillColor=#FFFFFF;strokeColor=none;" vertex="1" parent="pwaAFjr-Ts_MPylbhO1c-5">
          <mxGeometry x="26" y="44.44444444444444" width="100" height="44.44444444444444" as="geometry" />
        </mxCell>
        <mxCell id="pwaAFjr-Ts_MPylbhO1c-9" value="" style="endArrow=open;endSize=12;dashed=1;html=1;rounded=0;exitX=0;exitY=0;exitDx=140;exitDy=55;exitPerimeter=0;entryX=0;entryY=0;entryDx=0;entryDy=55;entryPerimeter=0;" edge="1" parent="pwaAFjr-Ts_MPylbhO1c-14" source="JWpU6tJr-7o1I1a7hI5X-10" target="pwaAFjr-Ts_MPylbhO1c-6">
          <mxGeometry width="160" relative="1" as="geometry">
            <mxPoint x="370" y="400" as="sourcePoint" />
            <mxPoint x="420" y="475" as="targetPoint" />
          </mxGeometry>
        </mxCell>
        <mxCell id="pwaAFjr-Ts_MPylbhO1c-11" value="&lt;font style=&quot;font-size: 14px;&quot;&gt;External System&lt;/font&gt;" style="text;html=1;align=center;verticalAlign=middle;whiteSpace=wrap;rounded=0;" vertex="1" parent="pwaAFjr-Ts_MPylbhO1c-14">
          <mxGeometry x="420" y="360" width="110" height="30" as="geometry" />
        </mxCell>
        <mxCell id="pwaAFjr-Ts_MPylbhO1c-13" value="&lt;font style=&quot;font-size: 14px;&quot;&gt;Logical View&lt;/font&gt;" style="text;html=1;align=center;verticalAlign=middle;whiteSpace=wrap;rounded=0;" vertex="1" parent="pwaAFjr-Ts_MPylbhO1c-14">
          <mxGeometry width="120" height="30" as="geometry" />
        </mxCell>
      </root>
    </mxGraphModel>
  </diagram>
</mxfile>
